<?xml version="1.0" encoding="UTF-8" standalone="no"?><!DOCTYPE svg PUBLIC "-//W3C//DTD SVG 1.1//EN" "http://www.w3.org/Graphics/SVG/1.1/DTD/svg11.dtd"><svg width="100%" height="100%" viewBox="0 0 312 72" version="1.1" xmlns="http://www.w3.org/2000/svg" xmlns:xlink="http://www.w3.org/1999/xlink" xml:space="preserve" style="fill-rule:evenodd;clip-rule:evenodd;stroke-linejoin:round;stroke-miterlimit:1.41421;"><g><path d="M248.82,0.489l0,49.225l62.302,0l0,-8.314l-54.002,0l0,-12.112l47.72,0l0,-8.314l-47.72,0l0,-12.179l54.002,0l0,-8.306l-62.302,0Zm-22.458,0l0,40.265l-42.35,-40.265l-11.652,0l0,49.225l8.3,0l0,-40.199l42.268,40.199l11.726,0l0,-49.225l-8.292,0Zm-116.11,0c-3.99,0 -7.372,1.394 -10.168,4.175c-2.789,2.796 -4.176,6.186 -4.176,10.198l0,20.471c0,4.22 1.335,7.676 4.02,10.354c2.677,2.684 6.119,4.027 10.324,4.027l33.598,0c4.295,0 7.758,-1.328 10.391,-3.961c2.648,-2.647 3.968,-6.126 3.968,-10.42l0,-20.471c0,-4.131 -1.372,-7.565 -4.094,-10.294c-2.722,-2.737 -6.141,-4.079 -10.265,-4.079l-33.598,0Zm-6.045,34.844l0,-20.471c0,-1.735 0.579,-3.189 1.743,-4.324c1.15,-1.157 2.596,-1.743 4.302,-1.743l33.598,0c1.802,0 3.264,0.571 4.376,1.669c1.12,1.105 1.669,2.589 1.669,4.398l0,20.471c0,4.034 -2.017,6.067 -6.045,6.067l-33.598,0c-4.035,0 -6.045,-2.033 -6.045,-6.067Zm-53.186,-34.785l-19.372,18.876l-0.178,0.185l-0.164,-0.185l-19.372,-18.876l-10.391,0l24.549,24.646l-24.571,24.587l10.413,0l19.372,-18.832l0.164,-0.185l0.178,0.185l19.372,18.832l10.406,0l-24.564,-24.587l24.549,-24.646l-10.391,0Zm18.75,31.18l9.049,0l0,-8.381l-9.049,0l0,8.381Z" style="fill:#fff;fill-rule:nonzero;"/><g><path d="M13.978,60.149c0,-1.267 -0.992,-2.269 -2.246,-2.269l-8.986,0c-1.254,0 -2.246,1.002 -2.246,2.269l0,3.044c0,1.248 0.992,2.269 2.246,2.269l8.986,0c0.393,0 0.73,0.322 0.73,0.719l0,3.044c0,0.397 -0.337,0.737 -0.73,0.737l-8.986,0c-0.393,0 -0.73,-0.34 -0.73,-0.737l0,-0.53l-1.516,0l0,0.53c0,1.266 0.992,2.269 2.246,2.269l8.986,0c1.254,0 2.246,-1.003 2.246,-2.269l0,-3.044c0,-1.248 -0.992,-2.269 -2.246,-2.269l-8.986,0c-0.393,0 -0.73,-0.322 -0.73,-0.719l0,-3.044c0,-0.397 0.337,-0.737 0.73,-0.737l8.986,0c0.393,0 0.73,0.34 0.73,0.737l0,0.53l1.516,0l0,-0.53Z" style="fill:#999;fill-rule:nonzero;"/><path d="M31.856,57.88c-1.255,0 -2.247,1.002 -2.247,2.269l0,9.076c0,1.266 0.992,2.269 2.247,2.269l8.985,0c1.254,0 2.247,-1.003 2.247,-2.269l0,-9.076c0,-1.267 -0.993,-2.269 -2.247,-2.269l-8.985,0Zm0,12.082c-0.393,0 -0.73,-0.34 -0.73,-0.737l0,-9.076c0,-0.397 0.337,-0.737 0.73,-0.737l8.985,0c0.393,0 0.73,0.34 0.73,0.737l0,9.076c0,0.397 -0.337,0.737 -0.73,0.737l-8.985,0Z" style="fill:#999;fill-rule:nonzero;"/><path d="M70.737,69.225c0,0.397 -0.337,0.737 -0.73,0.737l-8.986,0c-0.393,0 -0.73,-0.34 -0.73,-0.737l0,-11.345l-1.516,0l0,11.345c0,1.266 0.992,2.269 2.246,2.269l8.986,0c1.254,0 2.246,-1.003 2.246,-2.269l0,-11.345l-1.516,0l0,11.345Z" style="fill:#999;fill-rule:nonzero;"/><path d="M87.304,57.88l0,1.532l5.991,0l0,12.082l1.516,0l0,-12.082l5.972,0l0,-1.532l-13.479,0Z" style="fill:#999;fill-rule:nonzero;"/><path d="M128.151,57.88l0,6.032l-10.764,0l0,-6.032l-1.516,0l0,13.614l1.516,0l0,-6.032l10.764,0l0,6.032l1.535,0l0,-13.614l-1.535,0Z" style="fill:#999;fill-rule:nonzero;"/><path d="M166.49,57.88c-1.254,0 -2.247,1.002 -2.247,2.269l0,11.345l1.517,0l0,-4.973l10.446,0l0,4.973l1.516,0l0,-11.345c0,-1.267 -0.992,-2.269 -2.247,-2.269l-8.985,0Zm-0.73,7.109l0,-4.84c0,-0.397 0.337,-0.737 0.73,-0.737l8.985,0c0.394,0 0.731,0.34 0.731,0.737l0,4.84l-10.446,0Z" style="fill:#999;fill-rule:nonzero;"/><path d="M193.559,57.88l0,13.614l1.516,0l0,-6.032l8.668,0l0,-1.55l-8.668,0l0,-4.5l10.783,0l0,-1.532l-12.299,0Z" style="fill:#999;fill-rule:nonzero;"/><path d="M234.275,60.168c0,-1.248 -0.992,-2.269 -2.246,-2.269l-11.232,0l0,13.595l1.516,0l0,-5.143c0.281,0.038 0.543,0.075 0.73,0.075l4.942,0l4.212,5.068l2.003,0l-4.231,-5.068l2.06,0c1.254,0 2.246,-1.021 2.246,-2.268l0,-3.99Zm-11.232,4.708c-0.393,0 -0.73,-0.321 -0.73,-0.718l0,-3.99c0,-0.397 0.337,-0.737 0.73,-0.737l8.986,0c0.393,0 0.711,0.34 0.711,0.737l0,3.99c0,0.397 -0.318,0.718 -0.711,0.718l-8.986,0Z" style="fill:#999;fill-rule:nonzero;"/><rect x="249.944" y="57.88" width="1.516" height="13.613" style="fill:#999;fill-rule:nonzero;"/><path d="M281.15,59.412l0,-1.532l-11.195,0c-1.254,0 -2.246,1.002 -2.246,2.269l0,9.076c0,1.266 0.992,2.269 2.246,2.269l11.195,0l0,-1.532l-11.195,0c-0.393,0 -0.73,-0.34 -0.73,-0.737l0,-9.076c0,-0.397 0.337,-0.737 0.73,-0.737l11.195,0Z" style="fill:#999;fill-rule:nonzero;"/><path d="M299.046,57.88c-1.254,0 -2.246,1.002 -2.246,2.269l0,11.345l1.516,0l0,-4.973l10.446,0l0,4.973l1.516,0l0,-11.345c0,-1.267 -0.992,-2.269 -2.246,-2.269l-8.986,0Zm-0.73,7.109l0,-4.84c0,-0.397 0.337,-0.737 0.73,-0.737l8.986,0c0.393,0 0.73,0.34 0.73,0.737l0,4.84l-10.446,0Z" style="fill:#999;fill-rule:nonzero;"/></g></g></svg>