<svg width="19px" height="16px" viewBox="-1 4 19 16" version="1.1" xmlns="http://www.w3.org/2000/svg" xmlns:xlink="http://www.w3.org/1999/xlink">
    <path d="M8.47947707,18.9418667 C7.90771237,18.9418667 7.37088884,18.7082667 6.96959472,18.2848 L1.0465359,12.0352 C0.968182956,11.952 0.903594721,11.8581333 0.855947662,11.7578667 C0.0438300149,10.5461333 -0.20075822,9.09653333 0.166653544,7.65333333 C0.614535897,5.89866667 2.02065354,4.51093333 3.74865354,4.11733333 C4.09383001,4.03946667 4.43688884,4 4.77041825,4 C6.54818296,4 7.7425359,5.06453333 8.48371237,6.10346667 C9.22912413,5.06453333 10.4234771,4 12.1885359,4 C12.5432418,4 12.9095947,4.04586667 13.2759477,4.13546667 C14.9859477,4.5536 16.3687712,5.94773333 16.7997124,7.68533333 C17.1575947,9.12 16.9077124,10.5610667 16.0987712,11.7653333 C16.0511241,11.8634667 15.9886535,11.9541333 15.9124183,12.0352 L9.99041825,18.2848 C9.58806531,18.7082667 9.0523006,18.9418667 8.47947707,18.9418667 L8.47947707,18.9418667 Z M2.67606531,10.6165333 L8.47947707,16.7402667 L14.2828888,10.6154667 C14.2871241,10.6101333 14.2913594,10.6048 14.2945359,10.5994667 C14.7953594,9.91146667 14.9563006,9.072 14.7477124,8.23573333 C14.5105359,7.27893333 13.74183,6.51093333 12.7899477,6.2784 C12.5824183,6.2272 12.380183,6.2016 12.1885359,6.2016 C10.346183,6.2016 9.49171237,8.7296 9.48324178,8.7552 C9.33712413,9.20106667 8.93265354,9.50186667 8.4805359,9.50186667 L8.47312413,9.50186667 C8.01677119,9.49866667 7.61335943,9.19466667 7.47147707,8.74453333 C7.46512413,8.7232 6.62865354,6.2016 4.77041825,6.2016 C4.58935943,6.2016 4.39771237,6.224 4.20183001,6.2688 C3.2563006,6.4832 2.45794766,7.26613333 2.21547707,8.21653333 C2.0005359,9.06026667 2.16041825,9.90613333 2.66441825,10.5994667 C2.66759472,10.6048 2.67183001,10.6112 2.67606531,10.6165333 L2.67606531,10.6165333 Z" id="Imported-Layers" stroke="none" fill="#ffffff" fill-rule="evenodd"></path>
</svg>
